<mxfile host="app.diagrams.net" agent="Mozilla/5.0 (Windows NT 10.0; Win64; x64; rv:138.0) Gecko/20100101 Firefox/138.0" version="27.0.5">
  <diagram name="Page-1" id="jOqoFW_oOc4YjnSX2DD9">
    <mxGraphModel dx="1965" dy="1178" grid="1" gridSize="10" guides="1" tooltips="1" connect="1" arrows="1" fold="1" page="1" pageScale="1" pageWidth="3300" pageHeight="4681" math="0" shadow="0">
      <root>
        <mxCell id="0" />
        <mxCell id="1" parent="0" />
        <mxCell id="12BUoPu4SDXQ1sC4zwbu-3" style="edgeStyle=orthogonalEdgeStyle;rounded=0;orthogonalLoop=1;jettySize=auto;html=1;exitX=1;exitY=0.5;exitDx=0;exitDy=0;entryX=0;entryY=0.5;entryDx=0;entryDy=0;" edge="1" parent="1" source="12BUoPu4SDXQ1sC4zwbu-1" target="12BUoPu4SDXQ1sC4zwbu-2">
          <mxGeometry relative="1" as="geometry" />
        </mxCell>
        <mxCell id="12BUoPu4SDXQ1sC4zwbu-1" value="data:images&#xa;Raw Lung CT&#xa;Images" style="rectangle;fillColor=#fff2cc;strokeColor=#d6b656;" name="data" vertex="1" parent="1">
          <mxGeometry x="340" y="230" width="100" height="50" as="geometry" />
        </mxCell>
        <mxCell id="12BUoPu4SDXQ1sC4zwbu-5" style="edgeStyle=orthogonalEdgeStyle;rounded=0;orthogonalLoop=1;jettySize=auto;html=1;exitX=1;exitY=0.5;exitDx=0;exitDy=0;entryX=0.5;entryY=0;entryDx=0;entryDy=0;" edge="1" parent="1" source="12BUoPu4SDXQ1sC4zwbu-2" target="12BUoPu4SDXQ1sC4zwbu-4">
          <mxGeometry relative="1" as="geometry" />
        </mxCell>
        <mxCell id="12BUoPu4SDXQ1sC4zwbu-2" value="transform" style="rounded=1;whiteSpace=wrap;html=1;arcSize=50;fillColor=#f8cecc;strokeColor=#b85450;" name="transform" vertex="1" parent="1">
          <mxGeometry x="520" y="230" width="100" height="50" as="geometry" />
        </mxCell>
        <mxCell id="12BUoPu4SDXQ1sC4zwbu-7" style="edgeStyle=orthogonalEdgeStyle;rounded=0;orthogonalLoop=1;jettySize=auto;html=1;exitX=0.5;exitY=1;exitDx=0;exitDy=0;entryX=1;entryY=0.5;entryDx=0;entryDy=0;" edge="1" parent="1" source="12BUoPu4SDXQ1sC4zwbu-4" target="12BUoPu4SDXQ1sC4zwbu-6">
          <mxGeometry relative="1" as="geometry" />
        </mxCell>
        <mxCell id="12BUoPu4SDXQ1sC4zwbu-4" value="data:images&#xa;JPEG Images" style="rectangle;fillColor=#fff2cc;strokeColor=#d6b656;" name="data" vertex="1" parent="1">
          <mxGeometry x="650" y="330" width="100" height="50" as="geometry" />
        </mxCell>
        <mxCell id="12BUoPu4SDXQ1sC4zwbu-9" style="edgeStyle=orthogonalEdgeStyle;rounded=0;orthogonalLoop=1;jettySize=auto;html=1;exitX=0;exitY=0.5;exitDx=0;exitDy=0;entryX=0.5;entryY=0;entryDx=0;entryDy=0;" edge="1" parent="1" source="12BUoPu4SDXQ1sC4zwbu-6" target="12BUoPu4SDXQ1sC4zwbu-8">
          <mxGeometry relative="1" as="geometry" />
        </mxCell>
        <mxCell id="12BUoPu4SDXQ1sC4zwbu-6" value="transform:embed" style="rounded=1;whiteSpace=wrap;html=1;arcSize=50;fillColor=#f8cecc;strokeColor=#b85450;" name="transform" vertex="1" parent="1">
          <mxGeometry x="520" y="430" width="100" height="50" as="geometry" />
        </mxCell>
        <mxCell id="12BUoPu4SDXQ1sC4zwbu-11" style="edgeStyle=orthogonalEdgeStyle;rounded=0;orthogonalLoop=1;jettySize=auto;html=1;exitX=0.5;exitY=1;exitDx=0;exitDy=0;entryX=0;entryY=0.5;entryDx=0;entryDy=0;" edge="1" parent="1" source="12BUoPu4SDXQ1sC4zwbu-8" target="12BUoPu4SDXQ1sC4zwbu-10">
          <mxGeometry relative="1" as="geometry" />
        </mxCell>
        <mxCell id="12BUoPu4SDXQ1sC4zwbu-8" value="data:images&#xa;Greyscale +&#xa;Normalized Images" style="rectangle;fillColor=#fff2cc;strokeColor=#d6b656;" name="data" vertex="1" parent="1">
          <mxGeometry x="390" y="530" width="100" height="50" as="geometry" />
        </mxCell>
        <mxCell id="12BUoPu4SDXQ1sC4zwbu-13" style="edgeStyle=orthogonalEdgeStyle;rounded=0;orthogonalLoop=1;jettySize=auto;html=1;exitX=1;exitY=0.5;exitDx=0;exitDy=0;entryX=0.5;entryY=0;entryDx=0;entryDy=0;" edge="1" parent="1" source="12BUoPu4SDXQ1sC4zwbu-10" target="12BUoPu4SDXQ1sC4zwbu-12">
          <mxGeometry relative="1" as="geometry" />
        </mxCell>
        <mxCell id="12BUoPu4SDXQ1sC4zwbu-10" value="transform" style="rounded=1;whiteSpace=wrap;html=1;arcSize=50;fillColor=#f8cecc;strokeColor=#b85450;" name="transform" vertex="1" parent="1">
          <mxGeometry x="520" y="630" width="100" height="50" as="geometry" />
        </mxCell>
        <mxCell id="12BUoPu4SDXQ1sC4zwbu-15" style="edgeStyle=orthogonalEdgeStyle;rounded=0;orthogonalLoop=1;jettySize=auto;html=1;exitX=0.5;exitY=1;exitDx=0;exitDy=0;entryX=0.5;entryY=0;entryDx=0;entryDy=0;" edge="1" parent="1" source="12BUoPu4SDXQ1sC4zwbu-12" target="12BUoPu4SDXQ1sC4zwbu-14">
          <mxGeometry relative="1" as="geometry" />
        </mxCell>
        <mxCell id="12BUoPu4SDXQ1sC4zwbu-12" value="data:images&#xa;Contast-Enhanced&#xa;Images" style="rectangle;fillColor=#fff2cc;strokeColor=#d6b656;" name="data" vertex="1" parent="1">
          <mxGeometry x="650" y="730" width="100" height="50" as="geometry" />
        </mxCell>
        <mxCell id="12BUoPu4SDXQ1sC4zwbu-17" style="edgeStyle=orthogonalEdgeStyle;rounded=0;orthogonalLoop=1;jettySize=auto;html=1;exitX=0.5;exitY=1;exitDx=0;exitDy=0;entryX=0.5;entryY=0;entryDx=0;entryDy=0;" edge="1" parent="1" source="12BUoPu4SDXQ1sC4zwbu-14" target="12BUoPu4SDXQ1sC4zwbu-16">
          <mxGeometry relative="1" as="geometry" />
        </mxCell>
        <mxCell id="12BUoPu4SDXQ1sC4zwbu-14" value="transform" style="rounded=1;whiteSpace=wrap;html=1;arcSize=50;fillColor=#f8cecc;strokeColor=#b85450;" name="transform" vertex="1" parent="1">
          <mxGeometry x="650" y="860" width="100" height="50" as="geometry" />
        </mxCell>
        <mxCell id="12BUoPu4SDXQ1sC4zwbu-19" style="edgeStyle=orthogonalEdgeStyle;rounded=0;orthogonalLoop=1;jettySize=auto;html=1;exitX=0.5;exitY=1;exitDx=0;exitDy=0;entryX=0;entryY=0.5;entryDx=0;entryDy=0;" edge="1" parent="1" source="12BUoPu4SDXQ1sC4zwbu-16" target="12BUoPu4SDXQ1sC4zwbu-18">
          <mxGeometry relative="1" as="geometry" />
        </mxCell>
        <mxCell id="12BUoPu4SDXQ1sC4zwbu-16" value="data:images&#xa;Segmentated&#xa;Images" style="rectangle;fillColor=#fff2cc;strokeColor=#d6b656;" name="data" vertex="1" parent="1">
          <mxGeometry x="650" y="990" width="100" height="50" as="geometry" />
        </mxCell>
        <mxCell id="12BUoPu4SDXQ1sC4zwbu-22" style="edgeStyle=orthogonalEdgeStyle;rounded=0;orthogonalLoop=1;jettySize=auto;html=1;exitX=1;exitY=0.5;exitDx=0;exitDy=0;entryX=0;entryY=0.5;entryDx=0;entryDy=0;" edge="1" parent="1" source="12BUoPu4SDXQ1sC4zwbu-18" target="12BUoPu4SDXQ1sC4zwbu-21">
          <mxGeometry relative="1" as="geometry" />
        </mxCell>
        <mxCell id="12BUoPu4SDXQ1sC4zwbu-18" value="transform" style="rounded=1;whiteSpace=wrap;html=1;arcSize=50;fillColor=#f8cecc;strokeColor=#b85450;" name="transform" vertex="1" parent="1">
          <mxGeometry x="780" y="1090" width="100" height="50" as="geometry" />
        </mxCell>
        <mxCell id="12BUoPu4SDXQ1sC4zwbu-24" style="edgeStyle=orthogonalEdgeStyle;rounded=0;orthogonalLoop=1;jettySize=auto;html=1;exitX=1;exitY=0.5;exitDx=0;exitDy=0;entryX=0;entryY=0.5;entryDx=0;entryDy=0;" edge="1" parent="1" source="12BUoPu4SDXQ1sC4zwbu-21" target="12BUoPu4SDXQ1sC4zwbu-23">
          <mxGeometry relative="1" as="geometry" />
        </mxCell>
        <mxCell id="12BUoPu4SDXQ1sC4zwbu-21" value="data:images&#xa;Extracted Features" style="rectangle;fillColor=#fff2cc;strokeColor=#d6b656;" name="data" vertex="1" parent="1">
          <mxGeometry x="960" y="1090" width="100" height="50" as="geometry" />
        </mxCell>
        <mxCell id="12BUoPu4SDXQ1sC4zwbu-26" style="edgeStyle=orthogonalEdgeStyle;rounded=0;orthogonalLoop=1;jettySize=auto;html=1;exitX=1;exitY=0.5;exitDx=0;exitDy=0;entryX=0;entryY=0.5;entryDx=0;entryDy=0;" edge="1" parent="1" source="12BUoPu4SDXQ1sC4zwbu-23" target="12BUoPu4SDXQ1sC4zwbu-25">
          <mxGeometry relative="1" as="geometry" />
        </mxCell>
        <mxCell id="12BUoPu4SDXQ1sC4zwbu-23" value="generate:train" style="rounded=1;whiteSpace=wrap;html=1;arcSize=50;fillColor=#e1d5e7;strokeColor=#9673a6;" name="generate:train" vertex="1" parent="1">
          <mxGeometry x="1140" y="1090" width="100" height="50" as="geometry" />
        </mxCell>
        <mxCell id="12BUoPu4SDXQ1sC4zwbu-28" style="edgeStyle=orthogonalEdgeStyle;rounded=0;orthogonalLoop=1;jettySize=auto;html=1;exitX=1;exitY=0.5;exitDx=0;exitDy=0;entryX=0;entryY=0.5;entryDx=0;entryDy=0;" edge="1" parent="1" source="12BUoPu4SDXQ1sC4zwbu-25" target="12BUoPu4SDXQ1sC4zwbu-27">
          <mxGeometry relative="1" as="geometry" />
        </mxCell>
        <mxCell id="12BUoPu4SDXQ1sC4zwbu-25" value="model:hybrid&#xa;Neuro-Fuzzy Logic" style="shape=hexagon;perimeter=hexagonPerimeter2;fillColor=#b0e3e6;strokeColor=#0e8088;" name="model" vertex="1" parent="1">
          <mxGeometry x="1320" y="1090" width="120" height="50" as="geometry" />
        </mxCell>
        <mxCell id="12BUoPu4SDXQ1sC4zwbu-32" style="edgeStyle=orthogonalEdgeStyle;rounded=0;orthogonalLoop=1;jettySize=auto;html=1;exitX=1;exitY=0.5;exitDx=0;exitDy=0;entryX=0;entryY=0.5;entryDx=0;entryDy=0;" edge="1" parent="1" source="12BUoPu4SDXQ1sC4zwbu-27" target="12BUoPu4SDXQ1sC4zwbu-31">
          <mxGeometry relative="1" as="geometry" />
        </mxCell>
        <mxCell id="12BUoPu4SDXQ1sC4zwbu-27" value="infer:deduce" style="rounded=1;whiteSpace=wrap;html=1;arcSize=50;fillColor=#bac8d3;strokeColor=#23445d;" name="infer:deduce" vertex="1" parent="1">
          <mxGeometry x="1520" y="1090" width="100" height="50" as="geometry" />
        </mxCell>
        <mxCell id="12BUoPu4SDXQ1sC4zwbu-30" style="edgeStyle=orthogonalEdgeStyle;rounded=0;orthogonalLoop=1;jettySize=auto;html=1;entryX=0.5;entryY=0;entryDx=0;entryDy=0;" edge="1" parent="1" source="12BUoPu4SDXQ1sC4zwbu-29" target="12BUoPu4SDXQ1sC4zwbu-27">
          <mxGeometry relative="1" as="geometry" />
        </mxCell>
        <mxCell id="12BUoPu4SDXQ1sC4zwbu-29" value="data:images&#xa;Patient Lung&#xa;CT Images" style="rectangle;fillColor=#fff2cc;strokeColor=#d6b656;" name="data" vertex="1" parent="1">
          <mxGeometry x="1520" y="960" width="100" height="50" as="geometry" />
        </mxCell>
        <mxCell id="12BUoPu4SDXQ1sC4zwbu-31" value="symbol&#xa;Report w/&#xa;Visual Aids" style="rectangle;fillColor=#dae8fc;strokeColor=#6c8ebf;" name="symbol" vertex="1" parent="1">
          <mxGeometry x="1700" y="1090" width="100" height="50" as="geometry" />
        </mxCell>
      </root>
    </mxGraphModel>
  </diagram>
</mxfile>
